<svg xmlns="http://www.w3.org/2000/svg" width="21" height="17" fill="none"><path fill="#415D37" d="M7.742 15.516a4.3 4.3 0 0 1-.75-1.258 4.1 4.1 0 0 1-.265-1.477q0-.882.328-1.656.336-.774.93-1.36a4.4 4.4 0 0 1 1.367-.93A4.1 4.1 0 0 1 11 8.5q.867 0 1.64.336.774.336 1.368.93.594.585.922 1.359.336.774.336 1.656 0 .781-.274 1.477a4.2 4.2 0 0 1-.742 1.258h-2.055a2.94 2.94 0 0 0 1.305-1.078 2.84 2.84 0 0 0 .516-1.657q0-.828-.414-1.515a3.06 3.06 0 0 0-1.094-1.094A2.87 2.87 0 0 0 11 9.758q-.828 0-1.516.414a3.1 3.1 0 0 0-1.101 1.094q-.406.687-.406 1.515 0 .915.507 1.656a3 3 0 0 0 1.313 1.079zM2.68 13.21a.7.7 0 0 1-.5-.18.6.6 0 0 1-.196-.453q0-.258.196-.445a.7.7 0 0 1 .5-.188h1.922q.305 0 .5.188.194.187.203.445a.6.6 0 0 1-.203.453.7.7 0 0 1-.5.18zM6.969 8.75a.59.59 0 0 1-.461.18.68.68 0 0 1-.485-.227l-1.359-1.36a.7.7 0 0 1-.226-.484q0-.273.187-.453a.63.63 0 0 1 .453-.18q.266 0 .484.22l1.36 1.359q.219.21.219.484a.61.61 0 0 1-.172.461m8.054 0a.58.58 0 0 1-.18-.453.7.7 0 0 1 .227-.492l1.36-1.36a.67.67 0 0 1 .484-.218.58.58 0 0 1 .453.18.6.6 0 0 1 .18.452.67.67 0 0 1-.219.485l-1.36 1.36a.68.68 0 0 1-.484.226.64.64 0 0 1-.46-.18m2.368 4.46a.73.73 0 0 1-.5-.179.63.63 0 0 1-.203-.453q0-.258.203-.445a.7.7 0 0 1 .5-.188h1.922q.305 0 .5.188.195.187.195.445a.6.6 0 0 1-.195.453.7.7 0 0 1-.5.18zM1.664 16.509a.68.68 0 0 1-.476-.188.56.56 0 0 1-.204-.437q0-.258.204-.445a.7.7 0 0 1 .476-.18h18.664q.273 0 .477.18a.59.59 0 0 1 .203.445.56.56 0 0 1-.203.437.68.68 0 0 1-.477.188zM11 6.578a.6.6 0 0 1-.453-.195.7.7 0 0 1-.188-.492V2.96l.094-1.18-.5.586-1.055 1.07a.9.9 0 0 1-.195.133.6.6 0 0 1-.219.047.55.55 0 0 1-.39-.148.5.5 0 0 1-.149-.375q0-.125.047-.219a.7.7 0 0 1 .14-.195L10.57.406q.227-.203.43-.203.195 0 .422.203l2.437 2.274q.095.093.141.195a.5.5 0 0 1 .047.219.5.5 0 0 1-.156.375.52.52 0 0 1-.383.148.6.6 0 0 1-.219-.047.9.9 0 0 1-.195-.132l-.977-.993-.578-.664.094 1.18v2.93a.7.7 0 0 1-.188.492.6.6 0 0 1-.445.195"/></svg>